<svg xmlns:svg="http://www.w3.org/2000/svg" xmlns="http://www.w3.org/2000/svg" version="1" width="828.861" height="850.313" viewBox="0 0 828.861 850.313" preserveAspectRatio="xMidYMid meet"><g transform="matrix(0.1,0,0,-0.1,-155.6,1231.8838)" fill="#000"><path d="m5300 12309.709c-760-56-1367-310-1795-750-357-366-563-835-593-1348l-7-115-115-94c-295-241-527-441-632-546-332-330-504-617-579-966-20-91-23-133-23-315 1-208 18-362 56-487l11-38 303 0 303 0-14 33c-47 112-77 296-76 467 2 347 124 602 441 921 115 116 397 369 411 369 3 0 23-53 44-117 100-313 236-540 460-772 224-231 483-401 816-535 331-132 649-201 1109-239l35-3-35-6c-19-4-764-39-1655-78-891-40-1621-72-1621-73-1-1-71-149-157-329l-155-328 50 0c27 0 860 38 1851 85 991 47 1818 84 1837 83 32-3 17-12-160-107-839-446-1701-1099-2677-2030l-163-155 0-510 0-511 151 160c225 238 679 687 891 882 589 540 1134 963 1615 1252 157 94 444 241 471 241 43 0 445-247 697-428 640-461 1282-1032 2118-1880l207-211 0 537 0 537-218 191c-1058 932-1952 1620-2523 1943-68 38-131 74-139 79-11 8-7 11 20 15 19 3 816 40 1770 82 954 41 1758 78 1786 81l51 5 195 425c119 258 190 424 182 424-7 0-100-15-206-34-654-116-1492-216-2153-256-215-13-1028-50-1075-49-22 0-7 6 43 15 643 116 1203 431 1564 879 375 466 506 1110 367 1805-64 319-215 643-413 884-68 83-232 245-311 309-446 357-1015 557-1730 607-165 11-474 11-630-1zm635-909c708-44 1251-246 1601-595 219-219 317-434 331-726 20-438-173-790-570-1037-281-176-643-287-1099-337-198-22-673-31-879-16-696 51-1186 229-1510 551-196 193-297 403-330 682-71 609 324 1090 1096 1337 372 119 875 171 1360 141z"/></g></svg>
