<svg xmlns:svg="http://www.w3.org/2000/svg" xmlns="http://www.w3.org/2000/svg" version="1" width="704.528" height="192.27" viewBox="0 0 704.528 192.27" preserveAspectRatio="xMidYMid meet"><style>.s0{fill:#000;}.s1{fill:#020202;}</style><path d="m686.16 116.602 0 48.866 7.888 0 7.888 0 0-48.866 0-48.866-7.888 0-7.888 0zM690.307 23.896 690.307 23.896 690.307 23.896 690.307 23.896 690.307 23.896c-3 1.286-6.256 5.742-6.256 8.656 0 5.742 4.714 10.627 10.199 10.627 11.056 0 14.227-14.141 4.371-19.283-3-1.543-4.799-1.543-8.313 0zM501.891 2.485c2.894 16.17 3.234 26.383 3.574 103.828l0.34 77.871 7.659 4.085 7.574 4 0-44.935 0-44.935 5.957 11.404c9.447 18.042 26.808 42.723 40.595 57.786l4.936 5.447 11.745 0.511c6.383 0.34 11.659 0.426 11.659 0.17 0-0.255-1.532-2.043-3.489-3.83-17.276-16.766-40.765-47.744-49.106-64.85l-3.745-7.83 2.128-3.66c8.085-13.787 31.744-39.404 57.531-62.212 1.957-1.787 3.489-3.404 3.319-3.489-0.085-0.17-5.872-0.511-12.681-0.851l-12.425-0.511-14.042 15.149c-19.149 20.51-29.021 32.255-38.127 45.276l-4.425 6.383 0.426-43.659 0.511-43.574-9.532-4.936c-5.277-2.638-9.872-4.936-10.213-5.106-0.426-0.17-0.511 0.936-0.17 2.468z" fill="#000"/><path d="m26.451 29.904c14.45-4.69 30.18-4.05 44.87-0.85 1.91 0.73 3.81 1.49 5.71 2.26-0.01 5.99 0.03 11.99-0.03 18-2.13-1.23-4.25-2.45-6.4-3.61-7.64-3.22-15.93-4.79-24.21-4.45-8.94-0.25-18.87 1.61-25.09 8.59-4.44 4.63-5.19 11.69-3.56 17.68 1.3 4.93 5.04 8.77 9.08 11.68 6.68 4.84 14.34 8.03 21.56 11.96 3.39 1.91 6.83 3.73 10.25 5.58 8.85 5.15 17.36 11.98 21.61 21.55 2.59 5.55 2.87 11.8 2.46 17.82-1.11 7.04-3.94 13.94-9.18 18.93-3.94 4.05-8.99 6.77-14.21 8.83-12.15 4.07-25.32 4.78-37.92 2.6-7.38-1.06-14.78-2.8-21.37-6.4-0.04-6.36-0.01-12.72-0.01-19.07 6.92 5.97 15.84 8.87 24.56 11.03 10.47 2.01 21.81 2.19 31.6-2.54 4.9-2.47 8.03-7.25 9.61-12.38 0.17-3.08 0.19-6.16 0.07-9.23-2.83-10.33-12.72-15.95-21.52-20.62-3.3-1.7-6.61-3.38-9.89-5.1-11.54-6.12-24.36-12.23-30.89-24.2-4.44-9-4.45-19.91-0.45-29.07 4.7-9.29 13.54-15.86 23.35-18.99zM99.901 44.024 99.901 44.024 99.901 44.024 99.901 44.024 99.901 44.024c5.34-1.53 10.51-3.63 15.94-4.86-0.1 9.707-0.048 20.181-0.16 28.61 8.09 0 16.18 0.01 24.27 0 0.13 4.48 0.07 8.98 0.08 13.48-8.09-0.01-16.18 0.01-24.27-0.01-0.157 19.952-0.37 41.666 0.02 59.18 0.15 4.67 1.71 10.16 6.27 12.34 5.22 2.55 11.43 1.94 16.57-0.51 0.3-0.38 0.91-1.14 1.21-1.51 0.33 4.59 0.17 9.2 0.21 13.81-8.52 3.86-18.8 4.11-27.44 0.5-8.77-3.92-12.48-14-12.68-23.02-0.13-20.26-0.01-40.52-0.05-60.78-5.62-0.01-11.24 0-16.86-0.01 0-4.21 0.03-8.41-0.03-12.61 0.31-0.22 0.94-0.66 1.25-0.88 5.21 0.05 10.43 0.01 15.64 0.02 0.02-7.92-0.04-15.84 0.03-23.75zM191.643 65.616c-5.465-0.051-10.947 0.839-16.112 2.589-12.02 4.69-21.34 14.919-25.97 26.859-5.28 15.12-4.839 32.101 0.541 47.141 4.77 11.58 14.789 21.169 27.159 23.989 12.67 2.85 26.181 1.67 38.311-2.88 2.84-1.41 5.61-2.94 8.37-4.48 0.28-5 0.15-10 0.1-14.98-5.49 4.27-11.781 7.43-18.461 9.38-8.58 1.86-17.74 2.04-26-1.28-5.44-2.56-9.929-6.8-12.989-11.95-2.19-4.42-3.511-9.2-4.211-14.07-0.18-1.78-0.299-3.55-0.409-5.3 23-0.08 45.989-0.01 68.989-0.03 0.15-10.58 0.161-21.52-3.909-31.47-3.48-8.97-10.36-16.851-19.4-20.461-5.095-2.015-10.543-3.007-16.008-3.058zm-2.766 13.053c3.535-0.064 7.035 0.481 10.483 1.286 4.93 2.06 9.391 5.459 11.781 10.339 2.87 5.22 3.709 11.25 3.859 17.13-17.51 0.01-35.009 0.031-52.509-0.009 0.81-9.63 5.789-19.111 13.889-24.541 3.28-2.26 7.17-3.219 10.98-4.139 0.506-0.035 1.012-0.056 1.517-0.066zM275.631 70.664c6.52-4.9 15.39-5.34 23.02-3.2-0.02 5.37-0.02 10.73-0.01 16.11-7.2-4.2-17.06-4.28-23.65 1.17-8.01 6.57-11.24 17.34-11.4 27.39-1.106 17.816-0.383 36.781-0.38 53.35-5.15-0.03-10.3-0.02-15.44-0.02 0.06-32.57-0.13-65.13 0.09-97.7 5.09 0.02 10.17 0.02 15.26 0 0.23 6.91 0.04 13.83 0.12 20.75 2.72-6.75 6.25-13.59 12.39-17.85zM344.012 65.642c-4.657 0.069-9.31 0.793-13.781 2.131-13.42 4.9-23.73 16.55-28.03 30.07-0.28 1.02-0.581 2.05-0.891 3.1-2.45 10.91-2.25 22.33-0.08 33.27 0.46 1.54 0.89 3.11 1.35 4.68 3.88 12.61 13.971 23.42 26.861 26.92 12.19 3.24 25.279 2.19 37.239-1.53 3.89-1.61 7.69-3.471 11.13-5.911-0.05-4.85 0.01-9.69-0.05-14.53-5.56 4.08-11.67 7.39-18.3 9.32-7.86 1.73-16.11 2.06-23.88-0.28-4.49-1.8-8.81-4.301-11.93-8.061-5.71-6.67-7.749-15.639-7.959-24.219 22.99-0.05 45.979 0.06 68.959-0.05 0.17-10.93-0.109-22.21-4.359-32.45-3.61-8.48-10.171-15.691-18.681-19.391-5.619-2.166-11.611-3.16-17.598-3.072zm0.417 13.083c1.045 0.001 2.092 0.009 3.142 0.019 5.7 1.01 11.4 3.411 14.92 8.211 4.58 5.38 5.539 12.61 6.239 19.38-0.24 0.28-0.71 0.86-0.95 1.15-17.32-0.12-34.639 0.01-51.959-0.07 0.6-3.52 1.53-6.96 2.7-10.32 3.27-7.56 9.22-14.08 17-17.08 1.92-0.41 3.86-0.8 5.78-1.27 1.04-0.015 2.083-0.02 3.128-0.019zM443.579 65.621c-5.751 0.051-11.493 0.883-17.008 2.523-12.4 3.83-22.921 13.34-27.611 25.48-4.69 11.84-5.27 25.111-2.98 37.561 2.65 14.17 12.24 26.92 25.53 32.73 12.32 4.8 26.351 5.04 38.891 0.93 13.51-4.63 23.959-16.409 27.809-30.059 3.65-13 3.221-27.01-0.559-39.93-4.17-12.63-14.159-23.19-27.009-27.07-5.55-1.485-11.311-2.215-17.062-2.164zm-0.142 13.053c1.646 0.005 3.294 0.16 4.914 0.47 1.41 0.2 2.829 0.401 4.259 0.611 8.55 2.35 15.641 8.9 18.731 17.2 4.1 10.87 4.279 22.999 1.759 34.259-2.08 8.98-7.84 17.381-16.55 20.991-0.99 0.34-1.96 0.689-2.93 1.069-7.71 1.97-15.92 1.72-23.43-0.95-7.16-3.15-12.75-9.09-16.07-16.1-4.37-11.5-4.56-24.549-0.82-36.239 3.11-9.69 11.02-17.691 20.95-20.261 1.42-0.21 2.84-0.419 4.28-0.619 1.615-0.29 3.26-0.436 4.906-0.431zM628.688 65.597c-6.105 0.03-12.237 1.002-18.097 2.567-5.08 1.62-10.01 3.769-14.5 6.659 0.03 5.49-0.12 10.991 0.13 16.491 0.2-0.36 0.609-1.081 0.809-1.441 5.89-4.43 12.441-7.949 19.561-9.889 1.98-0.33 3.959-0.591 5.959-0.891 4.61-0.93 9.289-0.15 13.809 0.93 9.26 3.68 11.831 14.53 11.731 23.52-7.92 1.16-15.821 2.42-23.761 3.33-2.57 0.53-5.179 0.72-7.739 1.27-11.05 1.67-22.751 6.91-27.481 17.73-3.03 7.99-3.34 17.01-0.55 25.12 2.83 6.37 8.001 11.72 14.561 14.23 7.91 2.85 16.71 3.29 24.85 1.15 8.65-2.41 15.569-8.92 19.959-16.58 0.16 5.22 0.071 10.44 0.091 15.67l15.689 0c0-16.14-0.01-32.28 0-48.42-0.09-9.06 0.461-18.159-1.039-27.139-1.97-9-7.41-17.44-16.05-21.22-5.75-2.205-11.828-3.117-17.933-3.087zm19.322 50.567c0.01 7.41 0.571 15.03-2.169 22.1-3.51 7.96-10.631 14.219-19.231 16.009-5.65 0.57-11.749 0.551-16.689-2.619-4.02-2.45-6.971-6.801-7.191-11.561-0.29-4.83 0.24-10.28 3.75-13.93 3.81-3.64 9.121-4.9 14.061-6.22 1.99-0.3 3.99-0.54 6-0.8 2.59-0.54 5.239-0.689 7.839-1.189 4.55-0.5 9.07-1.251 13.63-1.791z" fill="#020202"/><g transform="translate(-364.64759,-1054.9706)"/></svg>
